<svg width="140" height="130" viewBox="0 0 140 130" fill="none" xmlns="http://www.w3.org/2000/svg">
<g clip-path="url(#clip0_17508_77826)">
<path d="M125.725 55.2144L121.665 64.9734L117.632 55.2144H113.332L119.556 69.7057L119.502 69.8395C118.942 71.1224 118.3 71.6312 117.152 71.6312C116.324 71.6312 115.442 71.2837 114.801 70.7217L113.279 73.6897C114.214 74.5186 115.816 75 117.285 75C119.876 75 121.853 73.9574 123.242 70.4814L129.732 55.2144H125.725ZM106.2 67.0053C104.73 67.0053 103.849 66.3103 103.849 65.2677C103.849 64.3049 104.464 63.5833 106.413 63.5833H109.271V65.054C108.79 66.3643 107.588 67.0061 106.2 67.0061M106.52 55.0008C104.223 55.0008 101.9 55.616 100.323 56.7384L101.819 59.6525C102.861 58.8236 104.437 58.3156 105.96 58.3156C108.203 58.3156 109.272 59.3582 109.272 61.1498H105.96C101.579 61.1498 99.7891 62.9141 99.7891 65.454C99.7891 67.9939 101.792 69.8122 105.158 69.8122C107.268 69.8122 108.764 69.1171 109.539 67.8068V69.5985H113.438V61.3909C113.438 57.0327 110.901 55.0008 106.52 55.0008ZM91.2422 66.3909C89.1583 66.3909 87.5826 64.8935 87.5826 62.4076C87.5826 59.9217 89.1583 58.4236 91.2422 58.4236C93.3261 58.4236 94.9018 59.9209 94.9018 62.4076C94.9018 64.8943 93.3261 66.3909 91.2422 66.3909ZM91.9632 55.0008C90.0403 55.0008 88.4913 55.616 87.4489 56.8722V55.2144H83.4687V74.7856H87.6358V68.0745C88.704 69.2509 90.1733 69.8122 91.9632 69.8122C95.9966 69.8122 99.1221 66.9247 99.1221 62.4061C99.1221 57.8875 95.9966 55 91.9632 55M77.9668 55.2144V62.3262C77.9668 64.9734 76.5781 66.203 74.6544 66.203C72.7308 66.203 71.7432 65.1338 71.7432 62.7278V55.2144H67.5761V63.3422C67.5761 67.7802 70.1136 69.8122 73.7192 69.8122C75.4818 69.8122 77.0848 69.1437 78.1796 67.8875V69.5985H82.1324V55.2144H77.9653H77.9668ZM60.4446 55.0008C58.2809 55.0008 56.4112 55.8829 55.2625 57.3536C54.2475 55.7764 52.5382 55.0008 50.5348 55.0008C48.6917 55.0008 47.0887 55.6426 46.0205 56.8722V55.2144H42.0403V69.5985H46.2074V62.3795C46.2074 59.8129 47.5164 58.6099 49.3595 58.6099C51.0955 58.6099 52.0838 59.6791 52.0838 62.0053V69.5985H56.2509V62.3795C56.2509 59.8129 57.5599 58.6099 59.4296 58.6099C61.1124 58.6099 62.154 59.6791 62.154 62.0053V69.5985H66.321V61.3635C66.321 56.9787 63.8633 55 60.4446 55M32.853 66.3909C30.7698 66.3909 29.1668 64.8935 29.1668 62.4076C29.1668 59.9217 30.7698 58.4236 32.853 58.4236C34.9362 58.4236 36.5126 59.9209 36.5126 62.4076C36.5126 64.8943 34.9369 66.3909 32.853 66.3909ZM32.853 69.8129C37.4205 69.8129 40.7328 66.7384 40.7328 62.4068C40.7328 58.0753 37.4205 55.0008 32.853 55.0008C28.2856 55.0008 24.9466 58.0753 24.9466 62.4068C24.9466 66.7384 28.2856 69.8129 32.853 69.8129ZM17.7345 55.0008C15.7843 55.0008 14.1015 55.6692 12.9802 56.8989V55.2144H9V69.5985H13.1671V62.4867C13.1671 59.8403 14.6098 58.6099 16.6132 58.6099C18.4563 58.6099 19.5244 59.6791 19.5244 62.0053V69.5985H23.6915V61.3635C23.6915 56.9787 21.1274 55 17.7353 55" fill="#080D10"/>
<path d="M128.815 69.5993C130.022 69.5993 131 68.6199 131 67.4115C131 66.2031 130.022 65.2229 128.815 65.2229C127.607 65.2229 126.629 66.2024 126.629 67.4115C126.629 68.6206 127.607 69.5993 128.815 69.5993Z" fill="#393D40"/>
</g>
<defs>
<clipPath id="clip0_17508_77826">
<rect width="122" height="20" fill="white" transform="translate(9 55)"/>
</clipPath>
</defs>
</svg>
