<svg width="164" height="48" viewBox="0 0 164 48" fill="none" xmlns="http://www.w3.org/2000/svg">
<g clip-path="url(#clip0_16859_23106)">
<path d="M0.6 23.4996C1.1 20.8996 3.4 19.0996 6.6 19.0996C10.3 19.0996 13.2 20.6996 13.2 25.6996V34.9996H10L9.6 32.9996C8.5 34.3996 7 35.2996 4.8 35.2996C2.1 35.2996 0 33.5996 0 30.4996C0 27.3996 2.8 25.3996 6.7 25.3996H9.3V24.6996C9.3 22.8996 8 22.3996 6.5 22.3996C5.4 22.3996 4.3 22.7996 3.8 24.1996L0.6 23.4996ZM5.7 31.9996C7.5 31.9996 9.3 30.7996 9.3 28.7996V28.4996H6.8C5.1 28.3996 4.1 29.0996 4.1 30.4996C4.1 31.1996 4.7 31.9996 5.7 31.9996Z" fill="#080D10"/>
<path d="M76.0004 23.4996C76.5004 20.8996 78.8004 19.0996 82.0004 19.0996C85.7004 19.0996 88.6004 20.6996 88.6004 25.6996V34.9996H85.4004L85.0004 32.9996C83.9004 34.3996 82.4004 35.2996 80.2004 35.2996C77.5004 35.2996 75.4004 33.5996 75.4004 30.4996C75.4004 27.3996 78.2004 25.3996 82.1004 25.3996H84.7004V24.6996C84.7004 22.8996 83.4004 22.3996 81.9004 22.3996C80.8004 22.3996 79.7004 22.7996 79.2004 24.1996L76.0004 23.4996ZM81.1004 31.9996C82.9004 31.9996 84.7004 30.7996 84.7004 28.7996V28.4996H82.1004C80.4004 28.4996 79.4004 29.0996 79.4004 30.4996C79.5004 31.1996 80.1004 31.9996 81.1004 31.9996Z" fill="#080D10"/>
<path d="M92.0996 35.0996V19.2996H95.9996V21.8996C97.0996 19.9996 98.8996 19.0996 100.6 19.0996C101.3 19.0996 101.9 19.1996 102.5 19.3996L101.8 22.9996C101.3 22.6996 100.8 22.4996 100.2 22.4996C97.8996 22.4996 95.9996 24.3996 95.9996 29.3996V34.9996L92.0996 35.0996Z" fill="#080D10"/>
<path d="M110.8 19.1C112.4 19.1 113.9 19.9 114.6 20.8V13H118.5V35.1H114.6V33.5C114.1 34.3 112.7 35.4 110.8 35.4C106.1 35.4 103.7 32.1 103.7 27.3C103.7 22.5 106.1 19.1 110.8 19.1ZM111.4 32C113.4 32 115 30.3 115 27.2C115 24.1 113.4 22.4 111.4 22.4C109.4 22.4 107.8 24.1 107.8 27.2C107.8 30.3 109.4 32 111.4 32Z" fill="#080D10"/>
<path d="M132.5 21.6004L130.2 23.7004C129.5 22.7004 128.4 22.3004 127.6 22.3004C126.8 22.3004 126.1 22.8004 126.1 23.6004C126.1 24.3004 126.7 24.8004 127.6 25.1004C129.8 25.9004 133.3 26.6004 133.3 29.9004C133.3 32.8004 131.1 35.1004 127.7 35.1004C124.4 35.1004 122.2 32.8004 121.5 30.9004L124.6 29.2004C125.2 30.7004 126.2 31.8004 127.8 31.8004C129 31.8004 129.8 31.2004 129.8 30.1004C129.8 28.8004 127.8 28.5004 125.9 27.7004C124.2 27.0004 122.7 25.9004 122.7 23.5004C122.7 21.1004 124.7 18.9004 127.7 18.9004C129.7 19.0004 131.6 20.1004 132.5 21.6004Z" fill="#080D10"/>
<path d="M51.9 19.2998L49.1 30.1998L46.4 19.2998H42.8L40.2 30.1998L38 23.8998L37.7 24.5998L36.5 28.6998L38.5 35.0998H41.9L44.6 24.8998L47.3 35.0998H50.8L55.8 19.2998H51.9Z" fill="#080D10"/>
<path d="M70.5996 19.2998L67.7996 30.1998L65.0996 19.2998H61.4996L58.8996 30.1998L56.6996 23.8998L56.3996 24.5998L55.0996 28.6998L57.1996 35.0998H60.5996L63.2996 24.8998L65.9996 35.0998H69.3996L74.4996 19.2998H70.5996Z" fill="#080D10"/>
<path d="M37.1004 19.2998L32.1004 34.9998H28.7004L26.0004 24.8998L23.3004 35.0998H19.9004L14.9004 19.3998H18.8004L21.6004 30.1998L24.3004 19.3998H27.9004L30.6004 30.1998L33.4004 19.3998L37.1004 19.2998Z" fill="#080D10"/>
<path d="M138.4 30C139.9 30 141 31.1 141 32.6C141 34.1 139.9 35.2 138.4 35.2C136.9 35.2 135.8 34.1 135.8 32.6C135.8 31.1 136.9 30 138.4 30Z" fill="#080D10"/>
</g>
<defs>
<clipPath id="clip0_16859_23106">
<rect width="141" height="22.3" fill="white" transform="translate(0 13)"/>
</clipPath>
</defs>
</svg>
