<svg width="140" height="48" viewBox="0 0 140 48" fill="none" xmlns="http://www.w3.org/2000/svg">
<g clip-path="url(#clip0_16107_9803)">
<path fill-rule="evenodd" clip-rule="evenodd" d="M28.387 12.9072H24.2107V39.1226H28.387V12.9072ZM38.5555 35.2457C39.6449 35.2457 42.9134 34.8765 42.9134 30.8149V21.3996H47.0897V39.1226H42.9134V37.6457C41.8239 38.7534 40.0081 39.1226 38.5555 39.1226C36.5581 39.1226 34.9239 38.5688 33.6528 37.2765C32.2002 35.9842 31.4739 33.7688 31.4739 31.3688V21.3996H35.6502V31.5534C35.6502 32.8457 36.0134 35.2457 38.5555 35.2457ZM55.2607 14.938H51.0844V21.3996H47.9976V25.4611H51.0844V39.1226H55.2607V25.4611H58.3476V21.3996H55.2607V14.938ZM67.9713 35.061C69.2423 35.061 70.5134 34.5072 71.4213 33.7687L71.966 33.2149L74.8713 36.1687L74.1449 36.7226C72.5107 38.1995 70.3318 39.1226 67.9713 39.1226C62.887 39.1226 59.0739 35.2457 59.0739 30.0764C59.0739 24.9072 62.887 21.0303 67.9713 21.0303C70.3318 21.0303 72.5107 21.9533 74.1449 23.4303L74.8713 23.9841L71.966 26.7533L71.4213 26.1995C70.5134 25.2764 69.2423 24.9072 67.9713 24.9072C65.066 24.9072 63.0686 26.938 63.0686 29.8918C63.0686 32.8457 65.066 35.061 67.9713 35.061ZM89.5792 22.8765C88.3081 21.5842 87.037 21.0303 85.0397 21.0303C83.5871 21.0303 82.1344 21.3995 81.0449 22.5072V12.9072H76.8686V39.1226H81.0449V29.338C81.0449 25.2765 83.7686 24.9072 84.8581 24.9072C87.2476 24.9072 87.2306 27.0278 87.22 28.3556C87.2193 28.4404 87.2186 28.522 87.2186 28.5995V38.938H91.3949V28.7842C91.3949 26.3842 90.8502 24.1688 89.5792 22.8765ZM12.4081 35.061C14.7686 35.061 16.9476 34.138 18.4002 32.661L18.9449 32.1072L21.6686 34.8764L21.1239 35.4303C18.9449 37.8303 15.6765 39.1226 12.4081 39.1226C5.68968 39.1226 0.605469 33.5841 0.605469 26.3841C0.605469 19.1841 5.68968 13.6457 12.5897 13.8303C15.8581 13.8303 18.9449 15.1226 21.3055 17.5226L21.8502 18.0764L19.1265 20.8457L18.5818 20.2918C16.9476 18.6303 14.7686 17.7072 12.5897 17.7072C7.86863 17.7072 4.60021 21.3995 4.60021 26.3841C4.60021 31.3687 7.86863 35.061 12.4081 35.061Z" fill="#080D10"/>
<path d="M67.7897 33.0303C69.3942 33.0303 70.6949 31.7078 70.6949 30.0764C70.6949 28.4451 69.3942 27.1226 67.7897 27.1226C66.1851 27.1226 64.8844 28.4451 64.8844 30.0764C64.8844 31.7078 66.1851 33.0303 67.7897 33.0303Z" fill="#080D10"/>
<path d="M67.79 33.0307C69.3946 33.0307 70.6953 31.7083 70.6953 30.0769C70.6953 28.4455 69.3946 27.123 67.79 27.123C66.1855 27.123 64.8848 28.4455 64.8848 30.0769C64.8848 31.7083 66.1855 33.0307 67.79 33.0307Z" fill="#FF3D2E"/>
</g>
<defs>
<clipPath id="clip0_16107_9803">
<rect width="92" height="28" fill="white" transform="translate(0 12)"/>
</clipPath>
</defs>
</svg>
