<svg width="140" height="48" viewBox="0 0 140 48" fill="none" xmlns="http://www.w3.org/2000/svg">
<g clip-path="url(#clip0_16107_10122)">
<path d="M63.2205 35.3297L62.0841 32.3256C61.9371 31.9467 61.7858 31.4801 61.6298 30.9254C61.5166 31.4 61.3763 31.8671 61.2088 32.3256L60.0595 35.3297H63.2205ZM64.7912 39.4314L63.5746 36.3477H59.6586L58.4554 39.4314H57.3057L61.1687 29.6934H62.1233L65.9663 39.4304L64.7912 39.4314Z" fill="#080D10"/>
<path d="M78.441 39.4311H77.318L75.3469 32.9369C75.2509 32.6493 75.1483 32.2879 75.0323 31.8474C74.9555 31.5878 74.8949 31.3244 74.8519 31.0573C74.7383 31.7062 74.5818 32.3471 74.3842 32.9757L72.4751 39.4292H71.3502L68.75 29.7314H69.9532L71.4967 35.7217C71.6924 36.4739 71.8485 37.2351 71.9649 38.0034C72.0838 37.2005 72.2627 36.4066 72.4995 35.6302L74.251 29.7314H75.4538L77.2922 35.6828C77.5237 36.4436 77.7046 37.2194 77.8335 38.0039C77.948 37.2303 78.1088 36.4649 78.3141 35.7108L79.8509 29.7319H81.055L78.441 39.4311Z" fill="#080D10"/>
<path d="M89.7561 35.3311L88.6197 32.327C88.4727 31.9481 88.3215 31.4815 88.1654 30.9268C88.0527 31.4015 87.9119 31.8685 87.7444 32.327L86.5933 35.3297L89.7557 35.3311H89.7561ZM91.3268 39.4314L90.1103 36.3477H86.1938L84.991 39.4314H83.8408L87.7043 29.6934H88.6589L92.5024 39.4304L91.3268 39.4314Z" fill="#080D10"/>
<path d="M97.734 34.4285H99.2919C99.918 34.4801 100.543 34.3124 101.058 33.9548C101.452 33.5901 101.659 33.0676 101.62 32.5338C101.668 32.0066 101.454 31.4888 101.046 31.1473C100.495 30.8195 99.8531 30.6703 99.2122 30.7214H97.7326L97.734 34.4285ZM97.734 35.3981V39.4311H96.5977V29.7314H99.2771C100.476 29.7314 101.362 29.9588 101.935 30.4145C102.533 30.9266 102.851 31.6901 102.794 32.4722C102.794 33.7535 102.138 34.6203 100.827 35.0722L103.482 39.4306H102.138L99.7725 35.3977L97.734 35.3981Z" fill="#080D10"/>
<path d="M114.532 34.5289C114.532 33.2632 114.213 32.3097 113.573 31.6693C112.934 31.0284 111.984 30.7082 110.723 30.7077H109.073V38.4553H110.457C111.811 38.4553 112.829 38.1247 113.511 37.4629C114.194 36.8021 114.533 35.8235 114.531 34.5289H114.532ZM115.736 34.4901C115.736 36.0902 115.298 37.3132 114.423 38.1597C113.547 39.0057 112.287 39.4297 110.643 39.4311H107.936V29.7314H110.929C112.449 29.7314 113.63 30.1497 114.472 30.9862C115.358 31.9346 115.813 33.1998 115.736 34.4901Z" fill="#080D10"/>
<path d="M125.999 36.8515C126.035 37.6288 125.686 38.3743 125.064 38.848C124.321 39.361 123.427 39.613 122.524 39.5647C121.612 39.6083 120.7 39.4562 119.852 39.119V38.0295C120.274 38.2038 120.713 38.3374 121.161 38.4279C121.623 38.5245 122.093 38.5742 122.565 38.5752C123.166 38.6178 123.766 38.4681 124.276 38.1484C124.655 37.8708 124.869 37.4251 124.849 36.9585C124.861 36.6691 124.79 36.3825 124.645 36.1315C124.47 35.8818 124.236 35.6781 123.963 35.5379C123.497 35.2921 123.01 35.086 122.509 34.9221C121.774 34.7047 121.105 34.3106 120.561 33.7749C120.156 33.2889 119.947 32.6717 119.977 32.0421C119.952 31.3458 120.268 30.6817 120.825 30.2578C121.475 29.7893 122.268 29.5558 123.071 29.5951C123.991 29.5851 124.904 29.7656 125.751 30.1256L125.397 31.1066C124.654 30.784 123.854 30.6126 123.044 30.6031C122.544 30.5737 122.048 30.7092 121.634 30.9882C121.297 31.2388 121.107 31.6386 121.126 32.0554C121.114 32.342 121.178 32.6267 121.313 32.8801C121.471 33.1264 121.688 33.3296 121.944 33.4717C122.378 33.7109 122.833 33.9099 123.304 34.0657C124.09 34.2898 124.814 34.6896 125.42 35.2333C125.817 35.6781 126.024 36.2584 125.999 36.8515Z" fill="#080D10"/>
<path d="M66.5631 19.4718C66.5631 16.7466 65.3513 15.3848 62.9272 15.3858H61.4868V23.6435H62.6495C65.2597 23.6435 66.5645 22.2528 66.5645 19.4718H66.5631ZM69.379 19.4026C69.379 21.4906 68.7805 23.0893 67.583 24.1986C66.386 25.308 64.6569 25.8632 62.3955 25.8641H58.7773V13.1836H62.7893C64.875 13.1836 66.4944 13.7298 67.6484 14.8225C68.802 15.9153 69.379 17.4415 69.379 19.4026Z" fill="#080D10"/>
<path d="M79.5661 25.8641H72.207V13.1836H79.5661V15.3858H74.9165V18.1696H79.243V20.3736H74.9165V23.6421H79.5661V25.8641Z" fill="#080D10"/>
<path d="M91.2239 22.3441C91.2692 23.3919 90.8058 24.398 89.9787 25.0503C89.1482 25.7096 87.9932 26.0388 86.5132 26.0384C85.2642 26.0635 84.0257 25.8025 82.8945 25.2753V22.7766C83.6018 23.102 84.3335 23.371 85.0843 23.5818C85.6178 23.7306 86.1686 23.8101 86.7227 23.8187C87.2029 23.849 87.6806 23.7306 88.0906 23.48C88.4123 23.2479 88.5922 22.868 88.5679 22.4734C88.5703 22.2356 88.4972 22.0035 88.3574 21.8103C88.188 21.5886 87.9789 21.3996 87.7412 21.2513C87.2067 20.933 86.654 20.6459 86.0851 20.392C85.4556 20.1211 84.8647 19.7687 84.3287 19.3433C83.9436 19.016 83.6262 18.6186 83.3938 18.1719C83.1508 17.6864 83.031 17.1501 83.0434 16.6087C82.9952 15.5984 83.4191 14.6221 84.1932 13.9637C85.1019 13.2759 86.2288 12.9344 87.3699 13.0002C88.0114 12.9988 88.65 13.0784 89.2709 13.237C89.9176 13.4085 90.55 13.6293 91.1628 13.8964L90.2889 15.9863C89.7396 15.7537 89.1745 15.5605 88.5975 15.4065C88.1679 15.298 87.7264 15.2426 87.2826 15.2412C86.8588 15.2133 86.4397 15.3393 86.1032 15.5965C85.8312 15.8281 85.6804 16.1696 85.6918 16.5249C85.6871 16.7433 85.7448 16.9583 85.8579 17.1454C85.9978 17.35 86.1782 17.5244 86.3872 17.6579C86.9418 17.9871 87.5155 18.2837 88.1054 18.5456C89.0413 18.9269 89.8799 19.5096 90.5614 20.2509C91.0144 20.8544 91.2478 21.5924 91.2239 22.3441Z" fill="#080D10"/>
<path d="M96.8755 13.1836H94.166V25.8641H96.8755V13.1836Z" fill="#080D10"/>
<path d="M105.318 18.7434H110.387V25.3177C109.631 25.5687 108.855 25.7563 108.067 25.879C107.331 25.9861 106.587 26.0391 105.843 26.0382C103.915 26.0382 102.442 25.4764 101.424 24.3523C100.406 23.2283 99.8985 21.6135 99.8994 19.507C99.8994 17.4602 100.489 15.8639 101.669 14.7185C102.849 13.5732 104.485 13 106.577 13C107.882 12.9991 109.173 13.2653 110.37 13.7816L109.469 15.9326C108.568 15.4769 107.57 15.2391 106.558 15.2386C105.49 15.1936 104.458 15.6233 103.742 16.4101C103.002 17.2892 102.624 18.4133 102.684 19.5572C102.684 20.9347 102.968 21.9863 103.537 22.711C104.135 23.4518 105.059 23.8583 106.014 23.8005C106.593 23.7986 107.169 23.7403 107.736 23.6271V20.9797H105.315L105.318 18.7434Z" fill="#080D10"/>
<path d="M125.481 25.8641H122.037L116.478 16.2711H116.4C116.51 17.965 116.566 19.1733 116.566 19.8962V25.8646H114.146V13.1841H117.562L123.112 22.6805H123.174C123.086 21.033 123.042 19.8687 123.042 19.1866V13.1836H125.481V25.8641Z" fill="#080D10"/>
<path d="M19.7223 13V29.9579C19.7223 32.9686 18.8432 35.3233 17.0854 37.0205C15.3276 38.7177 12.8773 39.5661 9.73541 39.5647C6.67657 39.5647 4.2902 38.7135 2.57632 37.0111C0.861954 35.3086 0.00334091 32.9336 0 29.8854V13H1.86136V29.9579C1.86136 32.4788 2.56534 34.4418 3.97425 35.8463C5.38268 37.2507 7.3753 37.9532 9.95257 37.9532C12.4688 37.9532 14.4198 37.2631 15.8044 35.8827C17.189 34.5024 17.8815 32.5873 17.8815 30.1369V13L19.7223 13Z" fill="#080D10"/>
<path fill-rule="evenodd" clip-rule="evenodd" d="M24.0039 37.4486L35.3449 26.1953L36.665 27.506L25.324 38.7593L24.0039 37.4486Z" fill="#080D10"/>
<path fill-rule="evenodd" clip-rule="evenodd" d="M38.619 26.1934L49.958 37.4481L48.6379 38.7583L37.2988 27.5036L38.619 26.1934Z" fill="#080D10"/>
<path fill-rule="evenodd" clip-rule="evenodd" d="M25.3255 13.002L36.6655 24.2543L35.3449 25.5655L24.0049 14.3131L25.3255 13.002Z" fill="#080D10"/>
<path fill-rule="evenodd" clip-rule="evenodd" d="M49.9589 14.3107L38.618 25.564L37.2979 24.2533L48.6388 13L49.9589 14.3107Z" fill="#080D10"/>
</g>
<defs>
<clipPath id="clip0_16107_10122">
<rect width="126" height="27" fill="white" transform="translate(0 13)"/>
</clipPath>
</defs>
</svg>
