<svg width="141" height="100" viewBox="0 0 141 100" fill="none" xmlns="http://www.w3.org/2000/svg">
<mask id="mask0_16564_9169" style="mask-type:luminance" maskUnits="userSpaceOnUse" x="22" y="39" width="97" height="22">
<path d="M119 39H22.75V61H119V39Z" fill="white"/>
</mask>
<g mask="url(#mask0_16564_9169)">
<path d="M73.4403 52.2917C71.0111 52.2917 69.0861 54.1708 69.0861 56.6458C69.0861 59.1208 71.0569 61 73.4403 61C75.8694 61 77.7944 59.075 77.7944 56.6458C77.7944 54.1708 75.8694 52.2917 73.4403 52.2917ZM73.4403 54.0333C74.9069 54.0333 76.0069 55.1333 76.0069 56.6458C76.0069 58.1583 74.8611 59.2583 73.4403 59.2583C71.9736 59.2583 70.8736 58.1583 70.8736 56.6458C70.8278 55.1333 71.9736 54.0333 73.4403 54.0333ZM109.694 58.2042V54.2167H111.757V52.475H109.694V50.1375L107.907 50.6875V52.475H106.394V54.2167H107.907V58.2042C107.907 60.3583 109.007 61.1375 111.757 60.7708V59.1667C110.382 59.2583 109.694 59.2583 109.694 58.2042ZM118.953 59.1208H114.874L118.953 54.2167V52.5667H112.628V54.2167H116.707L112.628 59.1208V60.8167H118.953V59.1208ZM82.8361 52.3833V54.3083C81.6444 54.2167 80.2694 54.7667 80.2694 56.6458V60.8167H78.4819V52.5208H80.2694V53.8958C80.7736 52.7958 81.7819 52.3833 82.8361 52.3833ZM87.1444 52.2917C84.7153 52.2917 82.7903 54.1708 82.7903 56.6458C82.7903 59.1208 84.7611 61 87.1444 61C89.5736 61 91.4986 59.075 91.4986 56.6458C91.5444 54.1708 89.6194 52.2917 87.1444 52.2917ZM87.1444 54.0333C88.6111 54.0333 89.7111 55.1333 89.7111 56.6458C89.7111 58.1583 88.5653 59.2583 87.1444 59.2583C85.6778 59.2583 84.5778 58.1583 84.5778 56.6458C84.5778 55.1333 85.7236 54.0333 87.1444 54.0333ZM103.324 52.5208L100.711 60.8167H98.9694L97.2278 55.225L95.4861 60.8167H93.7444L91.1319 52.5208H93.0111L94.6153 58.25L96.3569 52.5208H98.0528L99.7944 58.25L101.399 52.5208H103.324ZM105.707 52.5208H103.919V60.8167H105.707V52.5208ZM47.5444 39.55V42.9875C46.8569 42.4833 45.8944 42.0708 44.9778 42.0708C42.4111 42.0708 40.3486 44.3167 40.6236 46.9292C40.8528 48.9458 42.5028 50.5958 44.5194 50.825C45.6653 50.9167 46.7194 50.5958 47.5444 50V50.6417H49.3778V39L47.5444 39.55ZM47.4986 46.4708C47.4986 48.075 46.0319 49.3125 44.3819 48.9458C43.4194 48.7625 42.6403 47.9833 42.4111 46.975C42.0903 45.325 43.3736 43.8583 44.9778 43.8583C46.3528 43.8583 47.4986 45.0042 47.4986 46.4708ZM29.8528 42.3458V42.8958C29.1653 42.3917 28.2486 42.0708 27.3319 42.0708C24.7653 42.0708 22.7028 44.3167 22.9778 46.9292C23.2069 48.9458 24.8569 50.5958 26.8736 50.825C28.0194 50.9167 29.0736 50.5958 29.8986 50V50.6417H31.7319V42.3458H29.8528ZM29.8528 46.4708C29.8528 48.075 28.3861 49.3125 26.7361 48.9458C25.7736 48.7625 24.9944 47.9833 24.7653 46.975C24.4444 45.325 25.7278 43.8583 27.3319 43.8583C28.7069 43.8583 29.8528 45.0042 29.8528 46.4708ZM36.7736 42.1167C35.6278 42.1167 34.7569 42.5292 34.2069 43.4V42.3H32.4194V50.5958H34.2069V46.15C34.2069 44.4542 35.1236 43.7667 36.3153 43.7667C37.4611 43.7667 38.1486 44.4083 38.1486 45.6917V50.5958H39.9361V45.5542C39.9819 43.4 38.6528 42.1167 36.7736 42.1167ZM70.0944 48.1667C69.6819 48.7625 68.9486 49.175 67.9403 49.175C66.6111 49.175 65.5569 48.5333 65.2819 47.2042H71.8819C71.9278 46.975 71.9278 46.7 71.9278 46.4708C71.9278 44.0875 70.2319 42.1167 67.7569 42.1167C65.1444 42.1167 63.4028 44.0417 63.4028 46.4708C63.4028 48.9458 65.1903 50.825 67.8944 50.825C69.4986 50.825 70.7819 50.1375 71.5153 49.0375L70.0944 48.1667ZM67.8028 43.7667C68.9028 43.7667 69.9111 44.3625 70.1861 45.7833H65.2819C65.5569 44.5458 66.4736 43.7667 67.8028 43.7667ZM90.5819 49.2208C91.5903 49.2208 92.3236 48.7625 92.7361 48.2125L94.2028 49.0833C93.4236 50.2292 92.1861 50.8708 90.5819 50.8708C87.8319 50.8708 86.0903 48.9917 86.0903 46.5167C86.0903 44.0417 87.8778 42.1625 90.4444 42.1625C92.9194 42.1625 94.6153 44.1333 94.6153 46.5167C94.6153 46.6083 94.6153 46.7458 94.5694 46.8833C94.5694 47.0208 94.5236 47.1125 94.5236 47.25H87.9236C88.1986 48.5333 89.2528 49.2208 90.5819 49.2208ZM92.7819 45.7833C92.5528 44.3625 91.4986 43.7667 90.3986 43.7667C89.0694 43.7667 88.1528 44.5458 87.8778 45.7833H92.7819ZM105.707 50.6417H103.919V49.0375H105.707V50.6417ZM95.4861 50.6417H97.2736V46.1958C97.2736 44.5 98.1903 43.8125 99.3819 43.8125C100.482 43.8125 101.215 44.5 101.215 45.7375V50.5958H103.003V45.5083C103.003 43.3542 101.674 42.1167 99.8403 42.1167C98.6944 42.1167 97.8236 42.5292 97.2736 43.4V42.3458H95.4861V50.6417ZM74.3111 44.6375C74.3111 44.0417 74.8611 43.7667 75.5028 43.7667C76.1444 43.7667 76.6944 44.0417 77.0153 44.5917L78.5736 43.8125C77.9778 42.7583 76.8778 42.1167 75.5028 42.1167C73.8069 42.1167 72.4778 43.0792 72.4778 44.6375C72.4778 46.3792 73.9444 46.7917 75.2278 47.1583H75.2736C75.3194 47.1583 75.3653 47.2042 75.4111 47.2042C76.2819 47.4792 76.9236 47.6625 76.9236 48.2583C76.9236 48.9 76.3278 49.175 75.5028 49.175C74.7236 49.175 74.0819 48.8542 73.7611 48.2583L72.1569 49.0375C72.7069 50.1375 73.8986 50.825 75.4569 50.825C77.2444 50.825 78.7111 49.9083 78.7111 48.2583C78.7111 46.4708 77.1528 46.0125 75.9153 45.6917C75.0903 45.4625 74.3111 45.2333 74.3111 44.6375ZM81.2319 44.6375C81.2319 44.0417 81.7819 43.7667 82.4236 43.7667C83.0653 43.7667 83.6153 44.0417 83.9819 44.6375L85.5403 43.8583C84.9444 42.8042 83.7986 42.1625 82.4694 42.1625C80.7736 42.1625 79.4444 43.125 79.4444 44.6833C79.4444 46.425 80.9111 46.8375 82.1944 47.2042H82.3319C83.1569 47.4792 83.8903 47.7083 83.8903 48.3042C83.8903 48.9458 83.2486 49.2208 82.4694 49.2208C81.6444 49.2208 81.0486 48.9 80.7278 48.3042L79.1236 49.0833C79.6736 50.1833 80.8194 50.8708 82.4236 50.8708C84.2569 50.8708 85.6778 49.9542 85.6778 48.3042C85.6778 46.5167 84.2111 46.1042 82.9278 45.7375H82.8819C82.7903 45.7375 82.7444 45.6917 82.6528 45.6917C81.8736 45.4167 81.2319 45.2333 81.2319 44.6375ZM54.4653 44.1333V42.2083C53.4111 42.2083 52.4028 42.6208 51.8986 43.7208V42.3458H50.1111V50.6417H51.8986V46.4708C51.8986 44.5917 53.2736 44.0417 54.4653 44.1333ZM62.6694 49.0375V53.575C63.2194 52.7042 64.0903 52.2917 65.2361 52.2917C67.0694 52.2917 68.3986 53.5292 68.3986 55.6833V60.8167H66.6111V55.9125C66.6111 54.675 65.8778 53.9875 64.7778 53.9875C63.5861 53.9875 62.6694 54.675 62.6694 56.3708V60.8167H60.8819V50.5042C60.3319 50.7333 59.7361 50.8708 59.0486 50.8708C56.2986 50.8708 54.5569 48.9917 54.5569 46.5167C54.5569 44.0417 56.3444 42.1625 58.9111 42.1625C61.3861 42.1625 63.0819 44.1333 63.0819 46.5167C63.0819 46.6083 63.0819 46.7458 63.0361 46.8833C63.0361 47.0208 62.9903 47.1125 62.9903 47.25H56.3903C56.6653 48.5333 57.7194 49.2208 59.0486 49.2208C59.8278 49.2208 60.4236 48.9458 60.8819 48.5792C61.0194 48.4875 61.1111 48.35 61.2028 48.2125L62.6694 49.0375ZM61.2486 45.7833C60.9736 44.3625 59.9653 43.7667 58.8653 43.7667C57.5361 43.7667 56.6194 44.5458 56.3903 45.7833H61.2486Z" fill="white"/>
</g>
</svg>
