<svg width="140" height="48" viewBox="0 0 140 48" fill="none" xmlns="http://www.w3.org/2000/svg">
<g clip-path="url(#clip0_16107_17002)">
<path d="M26.27 31.3151C24.7099 31.3151 23.2481 30.6473 21.9198 29.5603L22.2431 28.0258L22.2572 27.9689C22.5453 26.3349 23.4589 23.5926 26.27 23.5926C28.3784 23.5926 30.0932 25.3261 30.0932 27.4574C30.0861 29.5816 28.3714 31.3151 26.27 31.3151ZM26.27 19.6781C22.6788 19.6781 19.8958 22.0368 18.7643 25.9158C17.0355 23.2942 15.7283 20.147 14.9623 17.4971H11.097V27.6634C11.097 29.6669 9.48059 31.3009 7.49874 31.3009C5.5169 31.3009 3.9005 29.6669 3.9005 27.6634V17.4971H0.0352003V27.6634C0.0211447 31.8266 3.37341 35.2438 7.49172 35.2438C11.61 35.2438 14.9623 31.8266 14.9623 27.6634V25.9584C15.7143 27.5427 16.6349 29.1411 17.7523 30.562L15.384 41.8153H19.3406L21.0554 33.6524C22.5594 34.6257 24.2882 35.2367 26.27 35.2367C30.5078 35.2367 33.9585 31.7271 33.9585 27.4432C33.9585 23.1664 30.5078 19.6781 26.27 19.6781Z" fill="#6FDA44"/>
<path d="M45.7578 20.1185L48.2527 30.2848L51.0005 20.1185H54.2755L50.0518 34.8103H46.7768L44.1835 24.58L41.5973 34.8032H38.3223L34.0986 20.1114H37.3736L40.1215 30.2777L42.6163 20.1114H45.7578V20.1185ZM62.1115 19.678C57.8597 19.678 54.4161 23.1663 54.4161 27.4573C54.4161 31.7555 57.8667 35.2366 62.1115 35.2366C66.3633 35.2366 69.814 31.7555 69.814 27.4573C69.814 23.1592 66.3633 19.678 62.1115 19.678ZM62.1115 32.0396C59.6096 32.0396 57.5856 29.9936 57.5856 27.4644C57.5856 24.9353 59.6166 22.8892 62.1115 22.8892C64.6134 22.8892 66.6374 24.9353 66.6374 27.4644C66.6374 29.9865 64.6134 32.0396 62.1115 32.0396ZM79.168 23.4078C76.9683 23.4078 75.1903 25.2123 75.1903 27.4289V34.8032H71.8942V20.1185H75.1903V22.3777C75.1903 22.3777 76.5958 20.1114 79.4843 20.1114H80.4963V23.4078H79.168ZM90.2298 26.889C92.5701 25.5533 94.1584 23.0171 94.1584 20.1114H90.8623C90.8623 22.5624 88.8945 24.5516 86.4699 24.5516H86.0272V13.0283H82.7311V34.8032H86.0272V27.8836H86.4207C86.744 27.8836 87.1657 28.0967 87.3554 28.3596L92.036 34.8032H95.9856L90.2298 26.889Z" fill="#080D10"/>
</g>
<defs>
<clipPath id="clip0_16107_17002">
<rect width="96" height="29" fill="white" transform="translate(0 13)"/>
</clipPath>
</defs>
</svg>
