<svg width="140" height="48" viewBox="0 0 140 48" fill="none" xmlns="http://www.w3.org/2000/svg">
<path fill-rule="evenodd" clip-rule="evenodd" d="M34.2275 16L23.3061 37.35H13.0476L17.6178 28.5023H17.4127C13.643 33.3977 8.01719 36.6196 0 37.35V28.6249C0 28.6249 5.128 28.3222 8.14226 25.1529H0.00250146V16.0025H9.15285V23.5294H9.35798L13.0977 16.0025H20.0192V23.4819H20.2243L24.1041 16.0025H34.2275V16Z" fill="#146EF5"/>
<path d="M93.7803 34.9916H96.727V18.0742H93.7803V34.9916Z" fill="#080D10"/>
<path fill-rule="evenodd" clip-rule="evenodd" d="M77.5326 34.8188C78.173 35.0839 78.8234 35.219 79.4862 35.219C80.5794 35.219 81.56 34.9539 82.423 34.421C83.286 33.8882 83.9564 33.1553 84.4316 32.2198C84.9069 31.2767 85.1446 30.2086 85.1446 29.0129C85.1446 27.8172 84.8994 26.7491 84.4116 25.806C83.9213 24.863 83.2409 24.1325 82.3704 23.6147C81.4999 23.0894 80.5093 22.8293 79.4012 22.8368C78.6958 22.8368 78.0204 22.9743 77.3725 23.247C76.7246 23.5197 76.1843 23.9099 75.7541 24.4127C75.7215 24.4502 75.689 24.4902 75.6565 24.5278V18.084H72.6973V34.9914H75.634L75.629 33.413C75.704 33.5055 75.7866 33.5981 75.8716 33.6856C76.3394 34.1684 76.8947 34.5461 77.5351 34.8188H77.5326ZM80.5544 32.0872C80.0716 32.3824 79.5213 32.5299 78.9034 32.5299C78.2855 32.5299 77.7302 32.3799 77.2199 32.0772C76.7096 31.767 76.3019 31.3467 75.9992 30.8139C75.704 30.2811 75.5564 29.6758 75.5564 29.0004C75.5489 28.325 75.694 27.7196 75.9892 27.1868C76.2919 26.6465 76.6971 26.2287 77.2099 25.9336C77.7202 25.6309 78.2855 25.4833 78.9059 25.4908C79.5238 25.4833 80.0766 25.6284 80.5569 25.9236C81.0472 26.2112 81.4199 26.6265 81.68 27.1643C81.9452 27.6971 82.0803 28.3075 82.0803 29.0004C82.0803 29.6933 81.9477 30.3036 81.68 30.8364C81.4199 31.3693 81.0472 31.787 80.5569 32.0897L80.5544 32.0872Z" fill="#080D10"/>
<path d="M38.498 19.0996H41.8675L44.8818 30.1035L48.0862 19.0996H50.8928L54.3698 29.8834L57.264 19.0996H60.3508L55.7957 34.9914H52.8915L49.3569 24.4577L46.1125 34.9914H43.1758L38.5005 19.0996H38.498Z" fill="#080D10"/>
<path fill-rule="evenodd" clip-rule="evenodd" d="M65.3228 35.2715C64.1497 35.279 63.0915 35.0188 62.1485 34.4935C61.2129 33.9607 60.475 33.2228 59.9347 32.2797C59.4019 31.3366 59.1367 30.261 59.1367 29.0528C59.1367 27.8446 59.4094 26.819 59.9572 25.8684C60.505 24.9179 61.2455 24.1775 62.181 23.6446C63.1166 23.1118 64.1597 22.8467 65.3128 22.8467C66.6086 22.8467 67.7418 23.1343 68.7123 23.7097C69.6904 24.285 70.4208 25.103 70.9036 26.1611C71.3939 27.2117 71.569 28.4174 71.4314 29.7782H62.1835C62.2085 30.3211 62.3436 30.8138 62.5887 31.2566C62.8614 31.7469 63.2441 32.1271 63.7319 32.3998C64.2222 32.6724 64.7675 32.81 65.3729 32.81C65.8331 32.8025 66.2609 32.7225 66.6586 32.5724C67.0539 32.4148 67.3891 32.2022 67.6617 31.9345C67.9419 31.6693 68.1395 31.3667 68.2546 31.0265H71.3414C71.1538 31.8545 70.781 32.5924 70.2182 33.2403C69.6579 33.8806 68.9525 34.3809 68.102 34.7411C67.2515 35.1014 66.3234 35.2765 65.3178 35.2689L65.3228 35.2715ZM62.6012 26.809C62.4286 27.1092 62.3086 27.4344 62.2435 27.7796H68.3721C68.3271 27.3418 68.192 26.9416 67.9669 26.5814C67.7067 26.1561 67.354 25.8284 66.9088 25.5983C66.4635 25.3607 65.9582 25.2431 65.3979 25.2431C64.8 25.2431 64.2572 25.3807 63.7669 25.6533C63.2766 25.926 62.8889 26.3112 62.6012 26.809Z" fill="#080D10"/>
<path d="M87.3132 23.0938C87.3132 22.1283 87.5334 21.2728 87.9711 20.5248C88.4114 19.7694 89.0242 19.1815 89.8172 18.7663C90.6152 18.341 91.5482 18.1209 92.6138 18.1084V20.7324C92.116 20.7399 91.6933 20.845 91.3406 21.0451C90.9954 21.2402 90.7277 21.5229 90.5426 21.8981C90.37 22.2433 90.2775 22.6411 90.2624 23.0963H92.5488V25.5903H90.2599V34.9933H87.3132V25.5903H85.4121V23.0963H87.3132V23.0938Z" fill="#080D10"/>
<path fill-rule="evenodd" clip-rule="evenodd" d="M104.218 35.2517C103.018 35.2517 101.94 34.989 100.991 34.4637C100.048 33.9309 99.308 33.198 98.7677 32.2624C98.2349 31.3194 97.9697 30.2512 97.9697 29.0555C97.9697 27.8598 98.2349 26.7817 98.7677 25.8387C99.308 24.8881 100.048 24.1502 100.991 23.6249C101.942 23.0996 103.018 22.8369 104.218 22.8369C105.419 22.8369 106.507 23.0996 107.458 23.6249C108.416 24.1502 109.159 24.8856 109.692 25.8262C110.224 26.7692 110.495 27.8448 110.502 29.0531C110.495 30.2488 110.224 31.3169 109.692 32.2599C109.166 33.1955 108.426 33.9284 107.468 34.4612C106.51 34.9865 105.427 35.2492 104.218 35.2492V35.2517ZM104.218 32.5426C104.851 32.5426 105.414 32.3975 105.902 32.1098C106.392 31.8147 106.77 31.4044 107.035 30.8791C107.3 30.3463 107.435 29.7384 107.435 29.0555C107.435 28.3726 107.303 27.7523 107.035 27.2195C106.77 26.6867 106.392 26.2764 105.902 25.9888C105.412 25.6936 104.851 25.546 104.218 25.546C103.586 25.546 103.035 25.6936 102.545 25.9888C102.062 26.2764 101.689 26.6867 101.422 27.2195C101.157 27.7523 101.027 28.3626 101.034 29.0555C101.034 29.7384 101.167 30.3463 101.434 30.8791C101.707 31.4044 102.082 31.8147 102.557 32.1098C103.04 32.3975 103.593 32.5426 104.221 32.5426H104.218Z" fill="#080D10"/>
<path d="M113.686 23.0947H110.404L113.956 34.9917H116.828L119.164 27.3922L121.686 34.9917H124.515L128.077 23.0947H125.108L123.087 30.4991L120.853 23.0947H117.981L115.76 30.6642L113.686 23.0947Z" fill="#080D10"/>
</svg>
